<?xml version="1.0" encoding="UTF-8"?>
<svg version="1.1" xmlns="http://www.w3.org/2000/svg" width="500" height="500">
<path d="M0 0 C1.33286615 0.66760021 2.66607826 1.33451145 4 2 C4 2.66 4 3.32 4 4 C4.71542969 4.09667969 5.43085938 4.19335938 6.16796875 4.29296875 C9.43267911 5.10802058 11.53003017 6.4320175 14.3125 8.3125 C18.76988733 11.24404315 23.18222852 13.71789772 28 16 C28.65613281 16.35191406 29.31226563 16.70382813 29.98828125 17.06640625 C35.74736235 19.73906719 44.61998442 19.86465515 50.6875 18.3125 C53.65134298 16.63031885 55.69402944 14.49294115 58 12 C58.66 11.34 59.32 10.68 60 10 C62.625 10.375 62.625 10.375 65 11 C66 14 66 14 65.5625 16.25 C63.2555901 20.31016142 59.94225387 23.48632526 56 26 C55.01 25.67 54.02 25.34 53 25 C52.67 25.66 52.34 26.32 52 27 C47.74996181 28.77501595 44.08297113 29.27182367 39.5 29.25 C37.87578125 29.25773437 37.87578125 29.25773437 36.21875 29.265625 C32.84756013 28.98742001 30.16078753 28.17312142 27 27 C25.96875 26.731875 24.9375 26.46375 23.875 26.1875 C14.17578006 23.45959439 5.56395899 19.01149024 -2.44921875 12.98828125 C-3.97461735 11.82085828 -3.97461735 11.82085828 -6 12 C-6 11.34 -6 10.68 -6 10 C-6.680625 9.90589844 -7.36125 9.81179687 -8.0625 9.71484375 C-11.66237583 8.83881014 -14.74177791 7.2716742 -18 5.5625 C-27.02439779 0.57122258 -27.02439779 0.57122258 -37 1 C-42.34323994 3.59828255 -42.34323994 3.59828255 -46 8 C-46.66 8 -47.32 8 -48 8 C-48.2475 8.66 -48.495 9.32 -48.75 10 C-49.73925907 12.37422178 -50.78717119 14.64124978 -51.9375 16.9375 C-52.28296875 17.62714844 -52.6284375 18.31679687 -52.984375 19.02734375 C-53.84796975 20.70471047 -54.76256075 22.35566355 -55.6875 24 C-57.33556283 27.76700076 -57.6038955 30.90692016 -58 35 C-58.33305945 36.33340177 -58.66640415 37.66673232 -59 39 C-59.99865044 46.04249233 -60.1825982 53.08479082 -60.1875 60.1875 C-60.19974609 61.13302734 -60.21199219 62.07855469 -60.22460938 63.05273438 C-60.23584999 68.42949578 -59.70284663 72.84698276 -58 78 C-57.66090502 79.82860109 -57.34630784 81.6620064 -57.0625 83.5 C-56.26174191 88.11539306 -54.95584883 91.76232754 -53 96 C-52.33333333 98.33333333 -51.66666667 100.66666667 -51 103 C-50.45317365 104.27765588 -49.89073771 105.54874972 -49.3125 106.8125 C-48.879375 107.864375 -48.44625 108.91625 -48 110 C-48.33 110.66 -48.66 111.32 -49 112 C-48.34 112.33 -47.68 112.66 -47 113 C-45.70566288 115.25244414 -44.49349394 117.50160196 -43.3125 119.8125 C-40.14451739 125.90471794 -36.8035795 131.8293473 -33.25 137.70703125 C-32 140 -32 140 -32 142 C-31.34 142.33 -30.68 142.66 -30 143 C-28.5565355 144.55894166 -27.14434652 146.14697577 -25.75 147.75 C-19.36209606 154.91467306 -13.2214322 161.07656728 -3.140625 162 C3.88095214 162 9.10584995 159.53649003 15 156 C15.99 156 16.98 156 18 156 C18 155.34 18 154.68 18 154 C19.57421875 152.44921875 19.57421875 152.44921875 21.6875 150.6875 C24.94522447 147.91814692 28.01591765 145.06697353 31 142 C31.639375 141.401875 32.27875 140.80375 32.9375 140.1875 C43.28857233 129.20908995 50.81648641 115.18298019 56.88671875 101.48046875 C57.57659758 99.94337031 58.30109655 98.42071643 59.078125 96.92578125 C60.02238767 94.95323253 60.56820561 93.12671199 61.0625 91 C61.29646484 90.01 61.29646484 90.01 61.53515625 89 C61.68855469 88.34 61.84195313 87.68 62 87 C62.16628906 86.35289062 62.33257812 85.70578125 62.50390625 85.0390625 C64.40603691 77.22085618 64.29421193 72.22924099 60.421875 65.03125 C58.99923079 62.73692873 58.99923079 62.73692873 56 61 C47.52309505 65.65196003 42.32744439 72.9798965 38.89453125 81.859375 C34.64718382 92.57575929 34.64718382 92.57575929 30 96 C29.01 96 28.02 96 27 96 C26.34 95.34 25.68 94.68 25 94 C24.51144531 93.59007812 24.02289063 93.18015625 23.51953125 92.7578125 C21.43818954 90.35009073 20.72025151 87.87743224 19.6875 84.875 C16.4791744 76.24902279 12.57299263 69.3852392 5 64 C1.87822605 62.95940868 0.92916561 62.67715102 -2 64 C-3.22772827 66.23259665 -3.22772827 66.23259665 -4 69 C-4.350625 69.86625 -4.70125 70.7325 -5.0625 71.625 C-7.28945822 79.64204959 -7.79494966 86.42296492 -4 94 C-3.46503906 95.12019531 -2.93007812 96.24039063 -2.37890625 97.39453125 C1.05315486 104.47734501 4.62157324 111.13287306 9.61328125 117.25390625 C10.05607422 117.79853516 10.49886719 118.34316406 10.95507812 118.90429688 C11.86981247 120.02172056 12.79456723 121.13100687 13.72851562 122.23242188 C17.04546152 126.36268094 17.04546152 126.36268094 16.79296875 129.90234375 C16.53128906 130.59457031 16.26960938 131.28679687 16 132 C10.57532011 132.83456614 7.6096802 130.94194697 3.36328125 127.89453125 C-5.97314699 120.40995655 -13.81335441 111.3039431 -18 100 C-18.556875 98.88625 -19.11375 97.7725 -19.6875 96.625 C-22.61860122 88.64242647 -22.28051441 77.47933161 -19.5625 69.4375 C-16.67743221 63.40976908 -11.51814017 58.72259814 -5.55078125 55.80078125 C0.13843565 54.01473306 6.01662605 54.42851937 11.6875 56.0625 C19.51220194 60.63921246 24.26974548 66.37266919 29 74 C29.33 74.33 29.66 74.66 30 75 C30.76183594 73.89591797 30.76183594 73.89591797 31.5390625 72.76953125 C37.34718104 64.535925 42.41472116 58.46009043 52.3125 55.25 C58.07717727 54.71375095 63.10129629 54.85722221 67.875 58.4375 C72.36290805 62.8106011 73.8533637 68.18108083 74.08984375 74.33984375 C73.32792313 86.08123587 69.22741661 97.57412754 64 108 C63.46246094 109.134375 62.92492187 110.26875 62.37109375 111.4375 C56.69182768 123.32212847 49.35968554 134.64031446 40 144 C39.42765625 144.71542969 39.42765625 144.71542969 38.84375 145.4453125 C32.04328243 153.94589696 20.52197939 164.33717475 9.4375 166.5 C6.75639074 166.89071327 6.75639074 166.89071327 4 169 C2.00039988 169.039992 -0.00047242 169.04346799 -2 169 C-2.33 169.33 -2.66 169.66 -3 170 C-10.91214519 170.35964296 -17.39906359 168.52831705 -23.9375 163.9375 C-24.9584375 162.9784375 -24.9584375 162.9784375 -26 162 C-26 161.34 -26 160.68 -26 160 C-26.56074219 159.938125 -27.12148437 159.87625 -27.69921875 159.8125 C-42.15721931 154.70678843 -52.57766396 129.77539024 -59.3125 117.125 C-59.7453833 116.31627441 -60.1782666 115.50754883 -60.62426758 114.67431641 C-63.43869726 109.32717729 -65.41576299 104.15437398 -67 98.3125 C-67.85377892 94.90455448 -67.85377892 94.90455448 -70 92 C-70.25893069 89.99328715 -70.51416407 87.98563568 -70.71875 85.97265625 C-70.93592792 83.87253618 -70.93592792 83.87253618 -72 81.5625 C-73.19130797 78.50977333 -73.4197754 75.72808824 -73.65625 72.4765625 C-73.94923851 69.84705545 -73.94923851 69.84705545 -75.015625 66.828125 C-76.21553999 62.16178893 -76.29337635 57.91808654 -76.25 53.125 C-76.25773438 52.27808594 -76.26546875 51.43117187 -76.2734375 50.55859375 C-76.25573939 44.7801619 -75.43070189 39.58500625 -74 34 C-73.66548828 32.43958984 -73.66548828 32.43958984 -73.32421875 30.84765625 C-69.98275693 16.23132327 -62.32354822 3.80253444 -50 -5 C-31.37633201 -13.80391578 -17.29470167 -8.81400214 0 0 Z " fill="#0259A2" transform="translate(216,124)"/>
<path d="M0 0 C9.26661482 6.21541238 14.88885793 13.58882507 17.8828125 24.33984375 C18.1953125 26.37109375 18.1953125 26.37109375 17.1953125 28.37109375 C17.8553125 28.37109375 18.5153125 28.37109375 19.1953125 28.37109375 C20.83335371 35.97290424 21.48191903 43.16677176 21.3828125 50.93359375 C21.3818457 52.37895508 21.3818457 52.37895508 21.38085938 53.85351562 C21.28311037 69.96037885 21.28311037 69.96037885 18.1953125 77.37109375 C18.1953125 78.31984375 18.1953125 79.26859375 18.1953125 80.24609375 C18.1953125 83.93166026 17.28033563 86.86072481 16.1953125 90.37109375 C16.0303125 91.21671875 15.8653125 92.06234375 15.6953125 92.93359375 C15.09907848 95.84023458 14.17174123 98.57199805 13.1953125 101.37109375 C12.5353125 101.37109375 11.8753125 101.37109375 11.1953125 101.37109375 C11.4221875 101.88671875 11.6490625 102.40234375 11.8828125 102.93359375 C12.27167046 105.96668584 11.29648525 107.80383722 10.01953125 110.51953125 C8.75064983 113.3700042 8.03752112 116.37072553 7.1953125 119.37109375 C5.56687263 124.23679359 3.57793135 128.79157414 1.16015625 133.31640625 C0.10224661 135.45963428 0.10224661 135.45963428 -0.7265625 138.1953125 C-4.0189776 147.8936222 -9.53986501 158.27145517 -15.8046875 166.37109375 C-16.4646875 166.37109375 -17.1246875 166.37109375 -17.8046875 166.37109375 C-17.8046875 167.36109375 -17.8046875 168.35109375 -17.8046875 169.37109375 C-24.50573529 176.83797558 -30.67544841 180.43446223 -40.6484375 181.33203125 C-43.8065021 181.38924257 -45.9326594 180.68743996 -48.8046875 179.37109375 C-49.83722656 178.92636719 -49.83722656 178.92636719 -50.890625 178.47265625 C-57.41692593 175.33201314 -62.19189207 170.67133646 -65.8046875 164.37109375 C-66.01953125 161.55859375 -66.01953125 161.55859375 -65.8046875 159.37109375 C-64.1546875 159.37109375 -62.5046875 159.37109375 -60.8046875 159.37109375 C-60.4746875 160.36109375 -60.1446875 161.35109375 -59.8046875 162.37109375 C-59.1446875 162.70109375 -58.4846875 163.03109375 -57.8046875 163.37109375 C-56.79757859 164.30095283 -55.79870603 165.23975404 -54.8046875 166.18359375 C-50.63085444 169.84562487 -46.00724908 171.59154552 -40.8046875 173.37109375 C-40.8046875 172.71109375 -40.8046875 172.05109375 -40.8046875 171.37109375 C-40.0621875 171.26796875 -39.3196875 171.16484375 -38.5546875 171.05859375 C-35.6183718 170.32451482 -34.14360462 169.22609698 -31.8046875 167.37109375 C-31.1446875 167.37109375 -30.4846875 167.37109375 -29.8046875 167.37109375 C-29.5571875 166.66984375 -29.3096875 165.96859375 -29.0546875 165.24609375 C-27.63288512 161.97594827 -25.93222462 159.22997175 -23.8046875 156.37109375 C-23.1446875 156.37109375 -22.4846875 156.37109375 -21.8046875 156.37109375 C-21.69640625 155.66210938 -21.588125 154.953125 -21.4765625 154.22265625 C-20.73354181 151.0691382 -19.55491863 148.61509245 -18.0546875 145.74609375 C-13.35652836 136.56384027 -8.80156514 127.37384765 -6.29296875 117.3203125 C-5.61607715 114.61816125 -4.70312056 112.00649738 -3.8046875 109.37109375 C-3.1446875 109.37109375 -2.4846875 109.37109375 -1.8046875 109.37109375 C-2.0109375 108.69046875 -2.2171875 108.00984375 -2.4296875 107.30859375 C-2.90901338 103.55387433 -1.9741492 100.94444893 -0.8046875 97.37109375 C0.17989178 93.85069157 0.51470584 90.41839954 0.81640625 86.78515625 C1.1953125 84.37109375 1.1953125 84.37109375 2.20239258 81.75170898 C3.39940995 77.67619888 3.48333651 74.08686635 3.4609375 69.8671875 C3.46285095 69.06628189 3.4647644 68.26537628 3.46673584 67.44020081 C3.46809092 65.75513391 3.46444202 64.07005633 3.45605469 62.38500977 C3.44533118 59.81307464 3.45598007 57.24183568 3.46875 54.66992188 C3.46742856 53.02734222 3.46486649 51.38476299 3.4609375 49.7421875 C3.46498596 48.97748642 3.46903442 48.21278534 3.47320557 47.4249115 C3.43687433 43.2697144 2.96053094 40.12968812 1.1953125 36.37109375 C0.85210847 33.76976319 0.69608208 31.19642649 0.5390625 28.578125 C0.38600197 26.16854219 0.38600197 26.16854219 -1.8046875 24.37109375 C-2.40387347 22.84331152 -2.96099024 21.29882419 -3.4921875 19.74609375 C-5.90503521 13.53391122 -9.44027362 8.30563173 -15.3046875 4.93359375 C-28.76438573 1.90516165 -39.8863704 7.30601143 -51.81640625 13.3984375 C-53.8046875 14.37109375 -53.8046875 14.37109375 -56.2109375 15.328125 C-59.93559426 16.8258409 -63.49437229 18.65457423 -67.0859375 20.4453125 C-70.14777678 21.48792156 -71.74576987 21.28544413 -74.8046875 20.37109375 C-75.1346875 19.05109375 -75.4646875 17.73109375 -75.8046875 16.37109375 C-75.1446875 16.37109375 -74.4846875 16.37109375 -73.8046875 16.37109375 C-73.8046875 15.71109375 -73.8046875 15.05109375 -73.8046875 14.37109375 C-73.1446875 14.37109375 -72.4846875 14.37109375 -71.8046875 14.37109375 C-71.4746875 13.71109375 -71.1446875 13.05109375 -70.8046875 12.37109375 C-66.67720897 9.3246215 -62.5143611 7.35411421 -57.8046875 5.37109375 C-56.1959375 4.38109375 -56.1959375 4.38109375 -54.5546875 3.37109375 C-49.97241257 0.66713872 -44.92724151 -0.36147021 -39.8046875 -1.62890625 C-38.49019663 -1.99686686 -37.17732291 -2.37072686 -35.8671875 -2.75390625 C-34.8565625 -3.04265625 -33.8459375 -3.33140625 -32.8046875 -3.62890625 C-32.23878906 -3.80679688 -31.67289062 -3.9846875 -31.08984375 -4.16796875 C-20.72804539 -6.2580409 -9.14817446 -5.31307625 0 0 Z " fill="#11A9F1" transform="translate(319.8046875,114.62890625)"/>
<path d="M0 0 C2.31 0 4.62 0 7 0 C7 9.57 7 19.14 7 29 C4.33333333 29 1.66666667 29 -1 29 C-1.66 29.33 -2.32 29.66 -3 30 C-6.3125 30.4375 -6.3125 30.4375 -10 30 C-13.51045136 27.23645318 -14.7623688 25.71540021 -15.375 21.29296875 C-15.47279739 16.72705288 -15.54799943 12.92923817 -13 9 C-9.32653229 6.55102153 -7.33643601 6.68462284 -3 7 C-2.34 7.66 -1.68 8.32 -1 9 C-0.67 6.03 -0.34 3.06 0 0 Z M-6 13 C-8.37994368 14.94332332 -8.37994368 14.94332332 -8.25 18.5 C-8.37994368 22.05667668 -8.37994368 22.05667668 -6 24 C-2.69316534 23.71016731 -2.69316534 23.71016731 0 22 C0.26293056 17.96839809 0.29404844 16.44107266 -2 13 C-3.32 13 -4.64 13 -6 13 Z " fill="#205989" transform="translate(270,297)"/>
<path d="M0 0 C3.28931514 1.72689045 3.8140267 2.4420801 5 6 C5.07051114 8.73865287 5.09357765 11.45027588 5.0625 14.1875 C5.05798828 14.93708984 5.05347656 15.68667969 5.04882812 16.45898438 C5.03706354 18.30602383 5.01912865 20.15302213 5 22 C3.02 22 1.04 22 -1 22 C-1.33 21.34 -1.66 20.68 -2 20 C-2.53625 20.495 -3.0725 20.99 -3.625 21.5 C-6.65118137 23.41127245 -8.47704517 23.37478243 -12 23 C-12.99 22.34 -13.98 21.68 -15 21 C-15.77310924 14.04201681 -15.77310924 14.04201681 -13.5625 11.0625 C-9.80237744 9.50342479 -6.03776816 9.25020358 -2 9 C-2 8.01 -2 7.02 -2 6 C-5.93075644 6.57452746 -5.93075644 6.57452746 -9 9 C-12.125 8.625 -12.125 8.625 -15 8 C-14.4360709 4.72921124 -13.54319569 3.13628438 -11 1 C-7.5607468 -0.7196266 -3.76835438 -0.38219964 0 0 Z M-9 15 C-8.67 15.99 -8.34 16.98 -8 18 C-6.05000871 17.80528889 -6.05000871 17.80528889 -4 17 C-2.71563266 15.0162233 -2.71563266 15.0162233 -2 13 C-6.04622502 12.63019987 -6.04622502 12.63019987 -9 15 Z " fill="#205989" transform="translate(247,304)"/>
<path d="M0 0 C2.9375 1.4375 2.9375 1.4375 5 4 C5.70637243 7.06270433 5.86029313 9.83331106 6 13 C1.38 13 -3.24 13 -8 13 C-7.67 13.99 -7.34 14.98 -7 16 C-4.65466049 16.76956136 -4.65466049 16.76956136 -2 17 C-1.505 16.505 -1.01 16.01 -0.5 15.5 C-0.005 15.005 0.49 14.51 1 14 C3.6875 14.3125 3.6875 14.3125 6 15 C5.69209738 17.84809926 5.34521809 19.58286148 3.5 21.8125 C-0.32363838 23.62872823 -3.84675616 23.66106995 -8 23 C-13.64028777 20.07913669 -13.64028777 20.07913669 -15 16 C-15.34531267 10.64765358 -15.47574585 7.34468232 -12 3 C-8.62458362 -0.62544722 -4.69688425 -0.80145247 0 0 Z M-7 6 C-7.33 6.99 -7.66 7.98 -8 9 C-5.36 9 -2.72 9 0 9 C-0.66 8.01 -1.32 7.02 -2 6 C-4.58380177 5.74969023 -4.58380177 5.74969023 -7 6 Z " fill="#205989" transform="translate(295,304)"/>
<path d="M0 0 C2.72590774 2.00668135 4.71453047 3.56969139 5.40014648 7.00488281 C5.49174285 9.29352338 5.43709979 11.52561463 5.3125 13.8125 C5.28994141 14.60076172 5.26738281 15.38902344 5.24414062 16.20117188 C5.18554161 18.13493929 5.09586827 20.06772167 5 22 C2.69 22 0.38 22 -2 22 C-2.33 17.05 -2.66 12.1 -3 7 C-4.32 7 -5.64 7 -7 7 C-8.41634833 9.83269666 -8.3463005 12.47466438 -8.5625 15.625 C-8.64628906 16.81351562 -8.73007813 18.00203125 -8.81640625 19.2265625 C-8.87699219 20.14179688 -8.93757812 21.05703125 -9 22 C-11.31 22 -13.62 22 -16 22 C-16 15.07 -16 8.14 -16 1 C-13.33333333 1 -10.66666667 1 -8 1 C-5.11138291 -0.44430855 -3.20352299 -0.37688506 0 0 Z " fill="#205989" transform="translate(203,304)"/>
<path d="M0 0 C2.31 0 4.62 0 7 0 C7.33 4.95 7.66 9.9 8 15 C9.32 15 10.64 15 12 15 C13.41634833 12.16730334 13.3463005 9.52533562 13.5625 6.375 C13.64628906 5.18648438 13.73007813 3.99796875 13.81640625 2.7734375 C13.87699219 1.85820312 13.93757812 0.94296875 14 0 C16.31 0 18.62 0 21 0 C21 6.93 21 13.86 21 21 C19.02 21 17.04 21 15 21 C14.67 20.34 14.34 19.68 14 19 C13.4740625 19.7425 13.4740625 19.7425 12.9375 20.5 C9.97447821 22.79395236 7.62957303 22.38888282 4 22 C1.38406847 20.16884793 1.03010545 19.09031634 0 16 C-0.07051114 13.26134713 -0.09357765 10.54972412 -0.0625 7.8125 C-0.05798828 7.06291016 -0.05347656 6.31332031 -0.04882812 5.54101562 C-0.03706354 3.69397617 -0.01912865 1.84697787 0 0 Z " fill="#205989" transform="translate(162,305)"/>
<path d="M0 0 C3.5625 0.5 3.5625 0.5 5.76953125 2.48046875 C8.1888181 6.55477972 8.01454888 9.67703241 7.8125 14.3125 C7.79445313 15.10076172 7.77640625 15.88902344 7.7578125 16.70117188 C7.71094048 18.63464261 7.6392041 20.56748285 7.5625 22.5 C5.5825 22.5 3.6025 22.5 1.5625 22.5 C1.50191406 21.58476562 1.44132812 20.66953125 1.37890625 19.7265625 C1.25322266 17.94378906 1.25322266 17.94378906 1.125 16.125 C1.04378906 14.94164062 0.96257812 13.75828125 0.87890625 12.5390625 C0.75165064 9.58481099 0.75165064 9.58481099 -0.4375 7.5 C-2.41286745 7.84786708 -2.41286745 7.84786708 -4.4375 8.5 C-5.78841528 11.20183055 -5.77608058 13.61808206 -6 16.625 C-6.08378906 17.72070312 -6.16757812 18.81640625 -6.25390625 19.9453125 C-6.31449219 20.78835938 -6.37507813 21.63140625 -6.4375 22.5 C-8.7475 22.5 -11.0575 22.5 -13.4375 22.5 C-13.4375 15.57 -13.4375 8.64 -13.4375 1.5 C-11.4575 1.5 -9.4775 1.5 -7.4375 1.5 C-7.1075 2.16 -6.7775 2.82 -6.4375 3.5 C-6.086875 3.005 -5.73625 2.51 -5.375 2 C-3.4375 0.5 -3.4375 0.5 0 0 Z " fill="#205989" transform="translate(317.4375,303.5)"/>
<path d="M0 0 C7.26 0 14.52 0 22 0 C22 1.98 22 3.96 22 6 C19.36 6 16.72 6 14 6 C14 12.93 14 19.86 14 27 C11.69 27 9.38 27 7 27 C7 20.07 7 13.14 7 6 C4.69 6 2.38 6 0 6 C0 4.02 0 2.04 0 0 Z " fill="#205989" transform="translate(139,299)"/>
<path d="M0 0 C6.27 0 12.54 0 19 0 C19 5 19 5 16.8125 7.67578125 C15.884375 8.54589844 14.95625 9.41601562 14 10.3125 C13.071875 11.19550781 12.14375 12.07851563 11.1875 12.98828125 C10.465625 13.65214844 9.74375 14.31601562 9 15 C12.3 15.33 15.6 15.66 19 16 C19 17.65 19 19.3 19 21 C12.73 21 6.46 21 0 21 C0 15 0 15 1.96875 12.4453125 C2.8040625 11.67960937 3.639375 10.91390625 4.5 10.125 C5.3353125 9.34382813 6.170625 8.56265625 7.03125 7.7578125 C7.6809375 7.17773438 8.330625 6.59765625 9 6 C6.03 5.67 3.06 5.34 0 5 C0 3.35 0 1.7 0 0 Z " fill="#205989" transform="translate(211,305)"/>
<path d="M0 0 C1.65 0 3.3 0 5 0 C5 1.65 5 3.3 5 5 C6.65 5 8.3 5 10 5 C10 6.65 10 8.3 10 10 C8.35 10 6.7 10 5 10 C5.33 13.3 5.66 16.6 6 20 C7.32 20 8.64 20 10 20 C10.04254356 21.99954746 10.04080783 24.00041636 10 26 C9 27 9 27 5.6875 27.3125 C2 27 2 27 -0.21484375 25.40234375 C-2.59370042 22.20103773 -2.40768617 20.19215423 -2.25 16.25 C-2.21390625 15.07953125 -2.1778125 13.9090625 -2.140625 12.703125 C-2.09421875 11.81109375 -2.0478125 10.9190625 -2 10 C-2.99 10 -3.98 10 -5 10 C-5 8.35 -5 6.7 -5 5 C-3.35 4.67 -1.7 4.34 0 4 C0 2.68 0 1.36 0 0 Z " fill="#205989" transform="translate(332,300)"/>
<path d="M0 0 C7.23963303 3.10269987 10.01271669 9.07039113 13 16 C13.36899458 17.32390781 13.71670878 18.655145 14 20 C13.34 20.33 12.68 20.66 12 21 C11.79246094 20.38253906 11.58492187 19.76507813 11.37109375 19.12890625 C9.21161422 13.19259642 6.53269592 8.66233344 2.48828125 3.8125 C1 2 1 2 0 0 Z " fill="#0050A0" transform="translate(224,189)"/>
<path d="M0 0 C0.66 0.33 1.32 0.66 2 1 C1.71937057 3.48088355 1.42609401 5.95909185 1.125 8.4375 C1.04636719 9.14455078 0.96773437 9.85160156 0.88671875 10.58007812 C0.66072324 12.39673432 0.33699273 14.20062522 0 16 C-0.66 16.33 -1.32 16.66 -2 17 C-2.3690205 5.47835991 -2.3690205 5.47835991 0 0 Z " fill="#015F91" transform="translate(209,193)"/>
<path d="M0 0 C1.7866789 2.68001835 2.9322137 5.03128744 4.125 8 C4.47820312 8.86625 4.83140625 9.7325 5.1953125 10.625 C6 13 6 13 6 16 C5.34 16 4.68 16 4 16 C-0.05263158 5.31578947 -0.05263158 5.31578947 -1 2 C-0.67 1.34 -0.34 0.68 0 0 Z " fill="#004E9D" transform="translate(149,218)"/>
<path d="M0 0 C0.99 0 1.98 0 3 0 C3.99 3.3 4.98 6.6 6 10 C2.51668565 6.98112756 1.20842856 4.43090471 0 0 Z " fill="#004A9D" transform="translate(196,219)"/>
<path d="M0 0 C3.37082558 1.44463953 5.58037292 3.24663125 8 6 C8.33 6.99 8.66 7.98 9 9 C4.44984107 7.48328036 2.49942736 3.83108947 0 0 Z " fill="#004994" transform="translate(224,189)"/>
<path d="M0 0 C4.4062186 1.34634457 6.43077702 3.19374374 9 7 C9 7.66 9 8.32 9 9 C5.20596616 7.73532205 4.93315707 6.38302487 3 3 C1.41754725 1.24850835 1.41754725 1.24850835 0 0 Z " fill="#005495" transform="translate(279,181)"/>
<path d="M0 0 C4.40114397 0.50298788 6.71195019 2.08772731 10 5 C9.01 5.495 9.01 5.495 8 6 C6.0546875 5.0390625 6.0546875 5.0390625 3.875 3.625 C3.15054688 3.16351563 2.42609375 2.70203125 1.6796875 2.2265625 C1.12539062 1.82179687 0.57109375 1.41703125 0 1 C0 0.67 0 0.34 0 0 Z " fill="#004CA1" transform="translate(220,128)"/>
<path d="M0 0 C2 1 2 1 2 1 Z " fill="#0048B6" transform="translate(227,256)"/>
<path d="" fill="#00B6FF" transform="translate(0,0)"/>
<path d="" fill="#006698" transform="translate(0,0)"/>
<path d="" fill="#005696" transform="translate(0,0)"/>
<path d="" fill="#00AEFF" transform="translate(0,0)"/>
<path d="" fill="#006386" transform="translate(0,0)"/>
<path d="" fill="#00ADFF" transform="translate(0,0)"/>
<path d="M0 0 C2 1 2 1 2 1 Z " fill="#0043BB" transform="translate(243,151)"/>
<path d="" fill="#00738C" transform="translate(0,0)"/>
<path d="" fill="#0055AA" transform="translate(0,0)"/>
<path d="" fill="#00AAFF" transform="translate(0,0)"/>
<path d="" fill="#0080FF" transform="translate(0,0)"/>
<path d="" fill="#0091FF" transform="translate(0,0)"/>
<path d="" fill="#006C93" transform="translate(0,0)"/>
<path d="" fill="#0055AA" transform="translate(0,0)"/>
<path d="" fill="#007887" transform="translate(0,0)"/>
<path d="" fill="#00B0FF" transform="translate(0,0)"/>
<path d="" fill="#00B5FF" transform="translate(0,0)"/>
<path d="" fill="#005180" transform="translate(0,0)"/>
<path d="" fill="#0039C6" transform="translate(0,0)"/>
<path d="" fill="#0086FF" transform="translate(0,0)"/>
<path d="" fill="#00A7FF" transform="translate(0,0)"/>
<path d="" fill="#008080" transform="translate(0,0)"/>
<path d="" fill="#00A7FF" transform="translate(0,0)"/>
</svg>
